<svg id="Layer_1" data-name="Layer 1" xmlns="http://www.w3.org/2000/svg" viewBox="0 0 831.5 831.61"><defs><style>.cls-1{fill:#fff;}</style></defs><path class="cls-1" d="M488.9,84.2h22.26a13.67,13.67,0,0,0,1.65.31c7.11.38,14.24.56,21.33,1.15a421.59,421.59,0,0,1,52.31,7.64,409.78,409.78,0,0,1,94.86,32.5A415.64,415.64,0,0,1,913.49,456.58a406.59,406.59,0,0,1,2,55.73,427.73,427.73,0,0,1-7.55,67.9,409.66,409.66,0,0,1-35.25,104.17A415.39,415.39,0,0,1,560.25,911.46a408.85,408.85,0,0,1-46.2,4.13,426.53,426.53,0,0,1-47.29-1.1,416.18,416.18,0,0,1-51.07-7.21A416.45,416.45,0,0,1,104.33,628.22a370.83,370.83,0,0,1-14.81-62.14c-1.85-13-3-26.1-4.4-39.16-.39-3.66-.58-7.34-.87-11V484.48a10.4,10.4,0,0,0,.31-1.45c.92-11.22,1.58-22.46,2.79-33.65a372.3,372.3,0,0,1,12.49-62.64q30.93-108.09,111.81-186.22A413.83,413.83,0,0,1,420.22,91.94a404.68,404.68,0,0,1,64-7.31C485.77,84.58,487.34,84.34,488.9,84.2ZM611,418.94a4.36,4.36,0,0,1,0,.94c-3.83,14.42-7.64,28.85-11.53,43.27C595,479.8,590.35,496.41,586,513.09c-3.59,13.66-6.7,27.45-10.33,41.1-1.41,5.29-2.88,10.53-2.85,16,.06,14.44,4.51,27.71,11.56,40.11,7.7,13.56,19.07,23.69,31.64,32.59,3.6,2.54,7.76,1.3,9.32-2.85a26.14,26.14,0,0,0,1.08-4.2q4.3-22.32,8.58-44.65c2.22-11.54,4.65-23,6.68-34.6,2.41-13.64,4.29-27.38,6.75-41,3.11-17.2,6.45-34.35,9.89-51.48,5.67-28.22,11.54-56.41,17.24-84.63,1-5,1.79-10.13,2.36-15.24.3-2.66-1.19-4.27-3.87-4.6a58.88,58.88,0,0,0-7.16-.22q-37,.06-74,.18c-4.64,0-8.28,1.88-10.37,6.25-.91,1.9-1.95,3.73-2.85,5.63q-23.77,50.47-47.54,101-10.44,22.14-21,44.21a2.65,2.65,0,0,1-2,1.36,2.52,2.52,0,0,1-1.74-1.6,54.71,54.71,0,0,1-1.67-8.26c-.28-2.88,0-5.81-.1-8.7q-.9-19.27-1.91-38.54c-.64-12.34-1.26-24.67-2-37q-1.11-19.47-2.42-38.94c-.48-7.17-1-14.34-1.75-21.5-.34-3.36-2.58-5.18-5.92-5.18q-39.39,0-78.79.1a7.25,7.25,0,0,0-7,5.14c-.43,1.23-.87,2.46-1.22,3.71-4.82,17.39-9.69,34.76-14.43,52.17q-17.5,64.18-34.94,128.37c-5,18.24-10.25,36.41-15.39,54.62-1.43,5.07,0,7,5.24,6.92,9.53-.09,19.05-.29,28.58-.39,6.18-.07,12.36,0,18.54-.1,5.54-.06,7.05-1.28,8.21-6.67.71-3.33,1-6.75,1.89-10,3.76-14.6,7.91-29.1,11.44-43.75,8.45-35.17,16.58-70.41,24.94-105.6,1.74-7.36,2.58-15.08,7.23-21.47.41-.57,1.26-1.43,1.58-1.31.82.3,1.9,1,2.09,1.71a45.78,45.78,0,0,1,1.63,8.49c.88,13.34,1.6,26.69,2.34,40q1.51,27.31,3,54.63,1.16,21.76,2.22,43.54c.46,9.15.86,18.29,1.34,27.43.3,5.85,2.49,7.93,8.33,7.86,7-.08,14.1-.37,21.15-.39,5.38,0,10.75.29,16.13.4a10.16,10.16,0,0,0,8.78-4.41,33.16,33.16,0,0,0,2.68-4.48c5.51-10.79,11-21.57,16.45-32.41q27.87-55.9,55.65-111.84,6.09-12.27,12.21-24.54A12.4,12.4,0,0,1,611,418.94ZM131.21,608.26c1.93.24,3.5.59,5.08.62,10.76.17,21.52.37,32.28.38q65.58.09,131.15.07c5.3,0,7.42-1.56,8.35-6.32q3.85-19.65,7.62-39.31c.92-4.82-.62-6.77-5.51-7.12a19.8,19.8,0,0,0-2.18,0c-5,.1-10,.29-15,.31Q271,557,249.1,557c-11.35,0-22.69,0-34-.07-4.8,0-6.58-2.28-5.74-7,1-5.71,2.07-11.42,3.31-17.08,1.49-6.79,3.05-13.58,4.86-20.3a10.05,10.05,0,0,1,9.75-7.95c4.34-.25,8.71-.06,13.07-.06,24.37,0,48.74.05,73.1,0,7,0,9-1.87,11.06-8.71q4.77-15.91,9.73-31.79c1.6-5.14.43-6.87-5-7H329c-12.8.12-25.6.29-38.39.34q-26.73.12-53.47.07c-5.53,0-8-3.13-6.75-8.5q3.54-15.24,7.28-30.44c1.77-7.24,5.72-10.42,13.2-10.43,11.41,0,22.83.24,34.25.23q36.76,0,73.53-.2c3.54,0,6.48-1.48,7.74-5.2.49-1.44,1.1-2.84,1.61-4.28,3.74-10.58,7.34-21.21,11.24-31.73,2.31-6.22,1.2-8.14-5.45-8.18-13.09-.07-26.18-.16-39.27-.17q-51.27,0-102.56,0c-13.24,0-26.47-.07-39.7,0-7.92.07-10.05,1.93-11.81,9.64-.08.35-.12.71-.19,1.07-3,15.44-5.85,30.91-9,46.32-2.67,13.07-5.81,26-8.45,39.11-2.92,14.5-5.29,29.11-8.32,43.58-2.76,13.12-6.31,26.07-9.11,39.18-4,18.65-7.6,37.37-11.35,56.06C133.09,598.34,132.19,603.17,131.21,608.26ZM847.79,416.09c.13-.19.41-.61.7-1,5-7,7.9-15,11.23-22.77,2.91-6.8,5.9-13.56,8.58-20.45,1.36-3.48.06-6.27-3.46-7.23-7.33-2-14.69-4.19-22.18-5.29-9.11-1.34-18.36-1.74-27.56-2.39-13-.91-26-1.61-39-.41a102.28,102.28,0,0,0-45.78,15.31c-17.22,10.83-30.17,25.12-36.57,44.75-3.46,10.64-5,21.49-3,32.62,2.38,12.92,9.05,23.45,18.51,32.31,8.79,8.23,19.27,13.92,29.79,19.52,13.74,7.32,27,15.31,39.19,25.12,6.65,5.38,7.75,11.07,3.66,18.63a31.6,31.6,0,0,1-20.48,16.05c-11.28,3-22.64,2-34,.2-14.48-2.26-28.23-7-41.69-12.72-6.91-2.92-9.59-1.93-12.78,4.88q-8.44,18-16.76,36.09c-1.77,3.83-1,6.57,2.79,8.29,4.67,2.11,9.4,4.47,14.36,5.49,16.34,3.38,32.76,6.38,49.2,9.19a114.87,114.87,0,0,0,30.21.88A180.93,180.93,0,0,0,791.29,605c23.47-7.55,42.09-21.21,54.17-43.09,7.27-13.17,12.1-26.82,9.28-42.24-2.37-13-7.56-24.24-17.87-32.94a187.45,187.45,0,0,0-31.26-20.94c-15-8.17-29.35-17.14-42.33-28.24-2.93-2.51-5-8.59-3.54-11.69,4.42-9.1,10.85-16,21.36-17.77a105.17,105.17,0,0,1,39.42,1.18C829.58,411.13,838.49,413.72,847.79,416.09Z" transform="translate(-84.25 -84.2)"/></svg>